# This file uses centimeters as units for non-parametric coordinates.

mtllib Block_21.mtl
g default
v -0.530470 -0.125949 2.236161
v 0.015802 -0.125949 2.236161
v 0.012803 -0.125949 1.253680
v -0.526843 -0.125949 1.253680
v -0.530470 -0.395627 2.236161
v 0.015802 -0.395627 2.236161
v 0.012803 -0.395627 1.253680
v -0.526843 -0.395627 1.253680
vt 0.267441 -0.000274
vt 0.271297 0.342062
vt 0.447290 0.343940
vt 0.447290 -0.000274
vt 0.267441 -0.000274
vt 0.447290 -0.000274
vt 0.447290 0.343940
vt 0.271297 0.342062
vt 0.267441 -0.000274
vt 0.447290 -0.000274
vt 0.447290 0.343940
vt 0.271297 0.342062
vn -0.000000 -1.000000 0.000000
vn -0.000000 -1.000000 0.000000
vn -0.000000 -1.000000 0.000000
vn -0.000000 -1.000000 0.000000
vn 0.000000 1.000000 -0.000000
vn 0.000000 1.000000 -0.000000
vn 0.000000 1.000000 -0.000000
vn 0.000000 1.000000 -0.000000
vn -0.000000 0.000000 1.000000
vn -0.000000 0.000000 1.000000
vn -0.000000 0.000000 1.000000
vn -0.000000 0.000000 1.000000
vn 0.999995 -0.000000 -0.003052
vn 0.999995 -0.000000 -0.003052
vn 0.999995 -0.000000 -0.003052
vn 0.999995 -0.000000 -0.003052
vn 0.000000 0.000001 -1.000000
vn 0.000000 0.000001 -1.000000
vn 0.000000 0.000001 -1.000000
vn 0.000000 0.000001 -1.000000
vn -0.999993 0.000000 -0.003691
vn -0.999993 0.000000 -0.003691
vn -0.999993 0.000000 -0.003691
vn -0.999993 0.000000 -0.003691
s off
f 5/1/1 8/2/2 7/3/3 6/4/4
f 1/5/5 2/6/6 3/7/7 4/8/8
f 1/9/9 5/1/10 6/4/11 2/10/12
f 2/10/13 6/4/14 7/3/15 3/11/16
f 3/11/17 7/3/18 8/2/19 4/12/20
f 4/12/21 8/2/22 5/1/23 1/9/24
