# This file uses centimeters as units for non-parametric coordinates.

mtllib Block_23.mtl
g default
v 0.580756 -0.125950 2.236161
v 1.118286 -0.125950 2.236161
v 1.111645 -0.125950 1.262467
v 0.585184 -0.125950 1.262467
v 0.580756 -0.395627 2.236161
v 1.118286 -0.395628 2.236161
v 1.111645 -0.395628 1.262467
v 0.585184 -0.395627 1.262467
vt 0.645369 -0.000274
vt 0.825071 -0.000274
vt 0.825071 0.343314
vt 0.645860 0.343314
vt 0.645369 -0.000274
vt 0.825071 -0.000274
vt 0.825071 0.343314
vt 0.645860 0.343314
vt 0.645369 -0.000274
vt 0.825071 -0.000274
vt 0.825071 0.343314
vt 0.645860 0.343314
vn -0.000000 -1.000000 0.000000
vn -0.000000 -1.000000 0.000000
vn -0.000000 -1.000000 0.000000
vn -0.000000 -1.000000 0.000000
vn 0.000000 1.000000 0.000000
vn 0.000000 1.000000 0.000000
vn 0.000000 1.000000 0.000000
vn 0.000000 1.000000 0.000000
vn 0.000000 0.000000 1.000000
vn 0.000000 0.000000 1.000000
vn 0.000000 0.000000 1.000000
vn 0.000000 0.000000 1.000000
vn 0.999977 0.000000 -0.006820
vn 0.999977 0.000000 -0.006820
vn 0.999977 0.000000 -0.006820
vn 0.999977 0.000000 -0.006820
vn -0.000000 0.000000 -1.000000
vn -0.000000 0.000000 -1.000000
vn -0.000000 0.000000 -1.000000
vn -0.000000 0.000000 -1.000000
vn -0.999990 -0.000000 -0.004547
vn -0.999990 -0.000000 -0.004547
vn -0.999990 -0.000000 -0.004547
vn -0.999990 -0.000000 -0.004547
s off
f 5/9/1 8/12/2 7/11/3 6/10/4
f 1/5/5 2/6/6 3/7/7 4/8/8
f 1/1/9 5/9/10 6/10/11 2/2/12
f 2/2/13 6/10/14 7/11/15 3/3/16
f 3/3/17 7/11/18 8/12/19 4/4/20
f 4/4/21 8/12/22 5/9/23 1/1/24
