# This file uses centimeters as units for non-parametric coordinates.

mtllib Block_03.mtl
g default
v 0.585183 -0.125950 0.310748
v 1.106110 -0.125950 0.312964
v 1.092827 -0.125950 -0.680807
v 0.578736 -0.125950 -0.680807
v 1.106110 -0.395628 0.312964
v 0.585183 -0.395627 0.310748
v 1.092827 -0.395628 -0.680807
v 0.578736 -0.395627 -0.680807
vt 0.643966 0.664945
vt 0.820211 0.664310
vt 0.817602 0.999031
vt 0.643334 0.999031
vt 0.643966 0.664945
vt 0.820211 0.664310
vt 0.817602 0.999031
vt 0.643334 0.999031
vt 0.643966 0.664945
vt 0.820211 0.664310
vt 0.817602 0.999031
vt 0.643334 0.999031
vn -0.000000 -1.000000 -0.000000
vn -0.000000 -1.000000 -0.000000
vn -0.000000 -1.000000 -0.000000
vn -0.000000 -1.000000 -0.000000
vn 0.000000 1.000000 0.000000
vn 0.000000 1.000000 0.000000
vn 0.000000 1.000000 0.000000
vn 0.000000 1.000000 0.000000
vn -0.004254 -0.000000 0.999991
vn -0.004254 -0.000000 0.999991
vn -0.004254 -0.000000 0.999991
vn -0.004254 -0.000000 0.999991
vn 0.999911 0.000000 -0.013365
vn 0.999911 0.000000 -0.013365
vn 0.999911 0.000000 -0.013365
vn 0.999911 0.000000 -0.013365
vn 0.000000 0.000000 -1.000000
vn 0.000000 0.000000 -1.000000
vn 0.000000 0.000000 -1.000000
vn 0.000000 0.000000 -1.000000
vn -0.999979 0.000000 0.006503
vn -0.999979 0.000000 0.006503
vn -0.999979 0.000000 0.006503
vn -0.999979 0.000000 0.006503
s off
f 6/9/1 8/12/2 7/11/3 5/10/4
f 1/5/5 2/6/6 3/7/7 4/8/8
f 1/1/9 6/9/10 5/10/11 2/2/12
f 2/2/13 5/10/14 7/11/15 3/3/16
f 3/3/17 7/11/18 8/12/19 4/4/20
f 4/4/21 8/12/22 6/9/23 1/1/24
