# This file uses centimeters as units for non-parametric coordinates.

mtllib Block_11.mtl
g default
v 0.012803 -0.125949 1.241102
v 0.012803 -0.125949 0.323361
v -0.510482 -0.125949 0.323361
v -0.514735 -0.125949 0.612149
v -0.522386 -0.125949 1.134181
v -0.522722 -0.125949 1.241102
v 0.012803 -0.395627 1.241102
v 0.012803 -0.395627 0.323361
v -0.510482 -0.395627 0.323361
v -0.514735 -0.395627 0.612149
v -0.522386 -0.395627 1.134181
v -0.522722 -0.395627 1.241102
vt 0.447290 0.350229
vt 0.271297 0.348351
vt 0.273330 0.384251
vt 0.272699 0.562391
vt 0.273917 0.658991
vt 0.447290 0.659025
vt 0.447290 0.350229
vt 0.447290 0.659025
vt 0.273917 0.658991
vt 0.272699 0.562391
vt 0.273330 0.384251
vt 0.271297 0.348351
vt 0.447290 0.350229
vt 0.447290 0.659025
vt 0.273917 0.658991
vt 0.272699 0.562391
vt 0.273330 0.384251
vt 0.271297 0.348351
vn -0.000000 -1.000000 -0.000000
vn -0.000000 -1.000000 -0.000000
vn -0.000000 -1.000000 -0.000000
vn -0.000000 -1.000000 -0.000000
vn -0.000000 -1.000000 -0.000000
vn -0.000000 -1.000000 -0.000000
vn 0.000000 1.000000 -0.000000
vn 0.000000 1.000000 -0.000000
vn 0.000000 1.000000 -0.000000
vn 0.000000 1.000000 -0.000000
vn 0.000000 1.000000 -0.000000
vn 0.000000 1.000000 -0.000000
vn 1.000000 -0.000000 -0.000000
vn 1.000000 -0.000000 -0.000000
vn 1.000000 -0.000000 -0.000000
vn 1.000000 -0.000000 -0.000000
vn 0.000000 0.000000 -1.000000
vn 0.000000 0.000000 -1.000000
vn 0.000000 0.000000 -1.000000
vn 0.000000 0.000000 -1.000000
vn -0.999892 0.000000 -0.014723
vn -0.999892 0.000000 -0.014723
vn -0.999892 0.000000 -0.014689
vn -0.999892 0.000000 -0.014689
vn -0.999960 0.000000 -0.008899
vn -0.999960 0.000000 -0.008899
vn -0.999995 0.000000 -0.003142
vn -0.999995 0.000000 -0.003142
vn 0.000000 0.000000 1.000000
vn 0.000000 0.000000 1.000000
vn 0.000000 0.000000 1.000000
vn 0.000000 0.000000 1.000000
s off
f 7/1/1 12/2/2 11/3/3 10/4/4 9/5/5 8/6/6
f 1/7/7 2/8/8 3/9/9 4/10/10 5/11/11 6/12/12
f 1/13/13 7/1/14 8/6/15 2/14/16
f 2/14/17 8/6/18 9/5/19 3/15/20
s 5
f 3/15/21 9/5/22 10/4/23 4/16/24
f 4/16/24 10/4/23 11/3/25 5/17/26
f 5/17/26 11/3/25 12/2/27 6/18/28
s off
f 6/18/29 12/2/30 7/1/31 1/13/32
