# This file uses centimeters as units for non-parametric coordinates.

mtllib Block_10.mtl
g default
v -1.075679 -0.125949 0.606662
v -0.527213 -0.125949 0.606649
v -0.526259 -0.125949 0.323361
v -1.069293 -0.125949 0.326201
v -0.527213 -0.395627 0.606649
v -1.075679 -0.395626 0.606662
v -0.526259 -0.395627 0.323361
v -1.069293 -0.395626 0.326201
vt 0.087158 0.565743
vt 0.087158 0.658450
vt 0.268630 0.658991
vt 0.268542 0.565787
vt 0.087158 0.565743
vt 0.268542 0.565787
vt 0.268630 0.658991
vt 0.087158 0.658450
vt 0.087158 0.565743
vt 0.268542 0.565787
vt 0.268630 0.658991
vt 0.087158 0.658450
vn -0.000000 -1.000000 0.000000
vn -0.000000 -1.000000 0.000000
vn -0.000000 -1.000000 0.000000
vn -0.000000 -1.000000 0.000000
vn 0.000000 1.000000 -0.000000
vn 0.000000 1.000000 -0.000000
vn 0.000000 1.000000 -0.000000
vn 0.000000 1.000000 -0.000000
vn 0.000024 -0.000000 1.000000
vn 0.000024 -0.000000 1.000000
vn 0.000024 -0.000000 1.000000
vn 0.000024 -0.000000 1.000000
vn 0.999994 0.000000 0.003365
vn 0.999994 0.000000 0.003365
vn 0.999994 0.000000 0.003365
vn 0.999994 0.000000 0.003365
vn -0.005230 0.000000 -0.999986
vn -0.005230 0.000000 -0.999986
vn -0.005230 0.000000 -0.999986
vn -0.005230 0.000000 -0.999986
vn -0.999741 0.000000 -0.022762
vn -0.999741 0.000000 -0.022762
vn -0.999741 0.000000 -0.022762
vn -0.999741 0.000000 -0.022762
s off
f 6/1/1 8/2/2 7/3/3 5/4/4
f 1/5/5 2/6/6 3/7/7 4/8/8
f 1/9/9 6/1/10 5/4/11 2/10/12
f 2/10/13 5/4/14 7/3/15 3/11/16
f 3/11/17 7/3/18 8/2/19 4/12/20
f 4/12/21 8/2/22 6/1/23 1/9/24
v -1.089142 -0.110730 1.241102
v -0.537385 -0.110730 1.241102
v -0.536677 -0.110730 1.139379
v -1.089142 -0.110730 1.138613
v -0.537385 -0.395627 1.241102
v -1.089142 -0.395626 1.241102
v -0.536677 -0.395627 1.139378
v -1.089142 -0.395626 1.138613
vt 0.087158 0.348687
vt 0.087158 0.381211
vt 0.267082 0.381725
vt 0.266010 0.348351
vt 0.087158 0.348687
vt 0.266010 0.348351
vt 0.267082 0.381725
vt 0.087158 0.381211
vt 0.087158 0.348687
vt 0.266010 0.348351
vt 0.267082 0.381725
vt 0.087158 0.381211
vn -0.000000 -1.000000 0.000000
vn -0.000000 -1.000000 0.000000
vn -0.000000 -1.000000 0.000000
vn -0.000000 -1.000000 0.000000
vn 0.000000 1.000000 0.000000
vn 0.000000 1.000000 0.000000
vn 0.000000 1.000000 0.000000
vn 0.000000 1.000000 0.000000
vn -0.000000 -0.000001 1.000000
vn -0.000000 -0.000001 1.000000
vn -0.000000 -0.000001 1.000000
vn -0.000000 -0.000001 1.000000
vn 0.999976 0.000000 0.006968
vn 0.999976 0.000000 0.006968
vn 0.999976 0.000000 0.006968
vn 0.999976 0.000000 0.006968
vn 0.001385 0.000001 -0.999999
vn 0.001385 0.000001 -0.999999
vn 0.001385 0.000001 -0.999999
vn 0.001385 0.000001 -0.999999
vn -1.000000 0.000000 0.000000
vn -1.000000 0.000000 0.000000
vn -1.000000 0.000000 0.000000
vn -1.000000 0.000000 0.000000
s off
f 14/13/25 16/14/26 15/15/27 13/16/28
f 9/17/29 10/18/30 11/19/31 12/20/32
f 9/21/33 14/13/34 13/16/35 10/22/36
f 10/22/37 13/16/38 15/15/39 11/23/40
f 11/23/41 15/15/42 16/14/43 12/24/44
f 12/24/45 16/14/46 14/13/47 9/21/48
