# This file uses centimeters as units for non-parametric coordinates.

mtllib Block_00.mtl
g default
v -1.069293 -0.125949 0.310840
v -0.522572 -0.125949 0.310186
v -0.513120 -0.125949 -0.680807
v -1.056197 -0.125949 -0.680807
v -0.522572 -0.395627 0.310186
v -1.069293 -0.395626 0.310840
v -0.513120 -0.395627 -0.680807
v -1.056197 -0.395626 -0.680807
vt 0.087158 0.664752
vt 0.087158 0.999031
vt 0.271760 0.999031
vt 0.268630 0.664277
vt 0.087158 0.664752
vt 0.268630 0.664277
vt 0.271760 0.999031
vt 0.087158 0.999031
vt 0.087158 0.664752
vt 0.268630 0.664277
vt 0.271760 0.999031
vt 0.087158 0.999031
vn -0.000000 -1.000000 0.000000
vn -0.000000 -1.000000 0.000000
vn -0.000000 -1.000000 0.000000
vn -0.000000 -1.000000 0.000000
vn 0.000000 1.000000 0.000000
vn 0.000000 1.000000 0.000000
vn 0.000000 1.000000 0.000000
vn 0.000000 1.000000 0.000000
vn 0.001196 -0.000000 0.999999
vn 0.001196 -0.000000 0.999999
vn 0.001196 -0.000000 0.999999
vn 0.001196 -0.000000 0.999999
vn 0.999955 0.000000 0.009538
vn 0.999955 0.000000 0.009538
vn 0.999955 0.000000 0.009538
vn 0.999955 0.000000 0.009538
vn -0.000000 0.000000 -1.000000
vn -0.000000 0.000000 -1.000000
vn -0.000000 0.000000 -1.000000
vn -0.000000 0.000000 -1.000000
vn -0.999913 0.000000 -0.013205
vn -0.999913 0.000000 -0.013205
vn -0.999913 0.000000 -0.013205
vn -0.999913 0.000000 -0.013205
s off
f 6/1/1 8/2/2 7/3/3 5/4/4
f 1/5/5 2/6/6 3/7/7 4/8/8
f 1/9/9 6/1/10 5/4/11 2/10/12
f 2/10/13 5/4/14 7/3/15 3/11/16
f 3/11/17 7/3/18 8/2/19 4/12/20
f 4/12/21 8/2/22 6/1/23 1/9/24
