# This file uses centimeters as units for non-parametric coordinates.

mtllib Block_14.mtl
g default
v 1.631393 -0.125950 1.243436
v 1.631394 -0.125950 0.327788
v 1.117854 -0.125950 0.323361
v 1.127816 -0.125950 1.241102
v 1.631393 -0.395628 1.243436
v 1.631394 -0.395628 0.327788
v 1.117854 -0.395627 0.323361
v 1.127816 -0.395627 1.241102
vt 0.999228 0.348968
vt 0.829942 0.349603
vt 0.825082 0.659025
vt 0.999228 0.658462
vt 0.999228 0.348968
vt 0.999228 0.658462
vt 0.825082 0.659025
vt 0.829942 0.349603
vt 0.999228 0.348968
vt 0.999228 0.658462
vt 0.825082 0.659025
vt 0.829942 0.349603
vn -0.000000 -1.000000 -0.000000
vn -0.000000 -1.000000 -0.000000
vn -0.000000 -1.000000 -0.000000
vn -0.000000 -1.000000 -0.000000
vn 0.000000 1.000000 0.000000
vn 0.000000 1.000000 0.000000
vn 0.000000 1.000000 0.000000
vn 0.000000 1.000000 0.000000
vn 1.000000 0.000000 0.000000
vn 1.000000 0.000000 0.000000
vn 1.000000 0.000000 0.000000
vn 1.000000 0.000000 0.000000
vn 0.008621 0.000001 -0.999963
vn 0.008621 0.000001 -0.999963
vn 0.008621 0.000001 -0.999963
vn 0.008621 0.000001 -0.999963
vn -0.999941 0.000000 0.010854
vn -0.999941 0.000000 0.010854
vn -0.999941 0.000000 0.010854
vn -0.999941 0.000000 0.010854
vn -0.004634 -0.000001 0.999989
vn -0.004634 -0.000001 0.999989
vn -0.004634 -0.000001 0.999989
vn -0.004634 -0.000001 0.999989
s off
f 5/1/1 8/2/2 7/3/3 6/4/4
f 1/5/5 2/6/6 3/7/7 4/8/8
f 1/9/9 5/1/10 6/4/11 2/10/12
f 2/10/13 6/4/14 7/3/15 3/11/16
f 3/11/17 7/3/18 8/2/19 4/12/20
f 4/12/21 8/2/22 5/1/23 1/9/24
